<svg xmlns="http://www.w3.org/2000/svg" width="1024" height="1024" viewBox="0 0 1024 1024"><defs><clipPath id="rr"><rect width="1024" height="1024" rx="230" ry="230"/></clipPath></defs><rect width="1024" height="1024" rx="230" ry="230" fill="#3FB984"/><g clip-path="url(#rr)"><g transform="translate(512.0,512.0) scale(4.266666666666667) rotate(-45) scale(1.52)"><path d="M 0 -10 C 22 -14 24 -70 0 -100 C -24 -70 -22 -14 0 -10 Z" transform="rotate(0)" fill="#FFFFFF"/><path d="M 0 -10 C 22 -14 24 -70 0 -100 C -24 -70 -22 -14 0 -10 Z" transform="rotate(120)" fill="#FFFFFF"/><path d="M 0 -10 C 22 -14 24 -70 0 -100 C -24 -70 -22 -14 0 -10 Z" transform="rotate(240)" fill="#FFFFFF"/></g></g></svg>